<svg xmlns="http://www.w3.org/2000/svg" width="960" height="690" viewBox="0 0 960 690" font-family="Microsoft YaHei, PingFang SC, Segoe UI, sans-serif">
<defs>
<linearGradient id="g0" x1="0" y1="0" x2="1" y2="0"><stop offset="0" stop-color="#2563eb" stop-opacity="0.16"/><stop offset="1" stop-color="#2563eb" stop-opacity="0.04"/></linearGradient>
<linearGradient id="g1" x1="0" y1="0" x2="1" y2="0"><stop offset="0" stop-color="#1d4ed8" stop-opacity="0.16"/><stop offset="1" stop-color="#1d4ed8" stop-opacity="0.04"/></linearGradient>
<linearGradient id="g2" x1="0" y1="0" x2="1" y2="0"><stop offset="0" stop-color="#0891b2" stop-opacity="0.16"/><stop offset="1" stop-color="#0891b2" stop-opacity="0.04"/></linearGradient>
<linearGradient id="g3" x1="0" y1="0" x2="1" y2="0"><stop offset="0" stop-color="#0d9488" stop-opacity="0.16"/><stop offset="1" stop-color="#0d9488" stop-opacity="0.04"/></linearGradient>
<linearGradient id="g4" x1="0" y1="0" x2="1" y2="0"><stop offset="0" stop-color="#7c3aed" stop-opacity="0.16"/><stop offset="1" stop-color="#7c3aed" stop-opacity="0.04"/></linearGradient>
<linearGradient id="g5" x1="0" y1="0" x2="1" y2="0"><stop offset="0" stop-color="#db2777" stop-opacity="0.16"/><stop offset="1" stop-color="#db2777" stop-opacity="0.04"/></linearGradient>
<marker id="arw" markerWidth="10" markerHeight="10" refX="6" refY="3" orient="auto"><path d="M0,0 L6,3 L0,6 Z" fill="#94a3b8"/></marker>
</defs>
<rect width="960" height="690" fill="#ffffff"/>
<text x="24" y="40" font-size="24" font-weight="700" fill="#0f172a">Enterprise Agent · 六层架构</text>
<text x="24" y="66" font-size="13.5" fill="#64748b">本地部署的企业级智能体系统 · 标准化 API 对接 ERP/CRM/OA/钉钉/企微</text>
<rect x="24" y="96" width="912" height="74" rx="12" fill="url(#g0)" stroke="#2563eb" stroke-opacity="0.55" stroke-width="1.4"/>
<rect x="24" y="96" width="6" height="74" rx="3" fill="#2563eb"/>
<text x="46" y="127" font-size="17" font-weight="700" fill="#2563eb">接入层</text>
<text x="46" y="148" font-size="11.5" fill="#94a3b8">Channel Layer</text>
<text x="174" y="138" font-size="14" fill="#334155">钉钉 Channel · 企微 Channel · OA · ERP / CRM</text>
<line x1="480" y1="173" x2="480" y2="189" stroke="#94a3b8" stroke-width="1.6" marker-end="url(#arw)"/>
<rect x="24" y="192" width="912" height="74" rx="12" fill="url(#g1)" stroke="#1d4ed8" stroke-opacity="0.55" stroke-width="1.4"/>
<rect x="24" y="192" width="6" height="74" rx="3" fill="#1d4ed8"/>
<text x="46" y="223" font-size="17" font-weight="700" fill="#1d4ed8">编排层</text>
<text x="46" y="244" font-size="11.5" fill="#94a3b8">Orchestration Layer</text>
<text x="174" y="234" font-size="14" fill="#334155">LangGraph StateGraph：Router → Planner → Skill → Tool → Reviewer</text>
<line x1="480" y1="269" x2="480" y2="285" stroke="#94a3b8" stroke-width="1.6" marker-end="url(#arw)"/>
<rect x="24" y="288" width="912" height="74" rx="12" fill="url(#g2)" stroke="#0891b2" stroke-opacity="0.55" stroke-width="1.4"/>
<rect x="24" y="288" width="6" height="74" rx="3" fill="#0891b2"/>
<text x="46" y="319" font-size="17" font-weight="700" fill="#0891b2">工具层</text>
<text x="46" y="340" font-size="11.5" fill="#94a3b8">Tool Layer</text>
<text x="174" y="330" font-size="14" fill="#334155">Native Tool Calling · MCP Protocol · HTTP Connector</text>
<line x1="480" y1="365" x2="480" y2="381" stroke="#94a3b8" stroke-width="1.6" marker-end="url(#arw)"/>
<rect x="24" y="384" width="912" height="74" rx="12" fill="url(#g3)" stroke="#0d9488" stroke-opacity="0.55" stroke-width="1.4"/>
<rect x="24" y="384" width="6" height="74" rx="3" fill="#0d9488"/>
<text x="46" y="415" font-size="17" font-weight="700" fill="#0d9488">记忆层</text>
<text x="46" y="436" font-size="11.5" fill="#94a3b8">Memory Layer</text>
<text x="174" y="426" font-size="14" fill="#334155">短期 Redis（会话/TTL/滚动摘要） · 长期 PostgreSQL（事实三元组）</text>
<line x1="480" y1="461" x2="480" y2="477" stroke="#94a3b8" stroke-width="1.6" marker-end="url(#arw)"/>
<rect x="24" y="480" width="912" height="74" rx="12" fill="url(#g4)" stroke="#7c3aed" stroke-opacity="0.55" stroke-width="1.4"/>
<rect x="24" y="480" width="6" height="74" rx="3" fill="#7c3aed"/>
<text x="46" y="511" font-size="17" font-weight="700" fill="#7c3aed">知识层</text>
<text x="46" y="532" font-size="11.5" fill="#94a3b8">Knowledge Layer</text>
<text x="174" y="522" font-size="14" fill="#334155">ChromaDB / Milvus · Dense+BM25 → RRF → Cross-Encoder 重排</text>
<line x1="480" y1="557" x2="480" y2="573" stroke="#94a3b8" stroke-width="1.6" marker-end="url(#arw)"/>
<rect x="24" y="576" width="912" height="74" rx="12" fill="url(#g5)" stroke="#db2777" stroke-opacity="0.55" stroke-width="1.4"/>
<rect x="24" y="576" width="6" height="74" rx="3" fill="#db2777"/>
<text x="46" y="607" font-size="17" font-weight="700" fill="#db2777">LLM 推理层</text>
<text x="46" y="628" font-size="11.5" fill="#94a3b8">Reasoning Layer</text>
<text x="174" y="618" font-size="14" fill="#334155">DeepSeek · Qwen · Ollama 本地模型（OpenAI 兼容接口）</text>
</svg>